<?xml version="1.0" encoding="iso-8859-1"?>
<!-- Generator: Adobe Illustrator 19.0.0, SVG Export Plug-In . SVG Version: 6.00 Build 0)  -->
<svg version="1.1" id="Layer_1" xmlns="http://www.w3.org/2000/svg" xmlns:xlink="http://www.w3.org/1999/xlink" x="0px" y="0px"
	 viewBox="0 0 511.997 511.997" style="enable-background:new 0 0 511.997 511.997;" xml:space="preserve">
<g>
	<g>
		<path d="M489.265,22.762C474.586,8.083,455.071,0,434.313,0s-40.273,8.083-54.951,22.762L221.761,180.361
			c-9.158-4.089-20.268-2.402-27.783,5.111c-9.733,9.731-9.733,25.511,0,35.244l8.448,8.448L54.402,377.189
			c-2.564,2.564-4.537,5.656-5.782,9.06l-15.674,42.847c-7.766,1.691-14.9,5.556-20.652,11.309
			c-7.925,7.923-12.288,18.457-12.288,29.663c0,11.203,4.363,21.738,12.288,29.663c8.178,8.176,18.921,12.265,29.662,12.265
			s21.484-4.089,29.662-12.265c0-0.002,0.002-0.002,0.002-0.003c5.752-5.754,9.618-12.886,11.309-20.65l42.847-15.674
			c3.404-1.246,6.496-3.22,9.06-5.782l148.026-148.026l8.448,8.448c4.866,4.866,11.245,7.3,17.621,7.3
			c6.377,0,12.757-2.434,17.621-7.3c7.515-7.515,9.201-18.625,5.111-27.783l157.601-157.599
			C519.565,102.365,519.565,53.063,489.265,22.762z M41.957,477.967c-2.08-0.002-4.115-0.846-5.582-2.313
			c-1.47-1.47-2.313-3.504-2.313-5.582s0.842-4.112,2.311-5.581l11.165,11.163C46.069,477.125,44.033,477.967,41.957,477.967z
			 M47.537,475.653l-11.163-11.165c1.539-1.538,3.559-2.308,5.579-2.308c2.022,0,4.044,0.771,5.584,2.309
			c1.469,1.47,2.311,3.504,2.311,5.582S49.006,474.186,47.537,475.653z M103.481,418.489l-15.681,5.737l5.737-15.681
			l144.133-144.133l9.944,9.944L103.481,418.489z M454.019,97.422L297.594,253.847l-39.414-39.414L414.607,58.008
			c5.263-5.265,12.261-8.164,19.706-8.164c7.445,0,14.443,2.899,19.706,8.163C464.887,68.873,464.887,86.555,454.019,97.422z"/>
	</g>
</g>
<g>
</g>
<g>
</g>
<g>
</g>
<g>
</g>
<g>
</g>
<g>
</g>
<g>
</g>
<g>
</g>
<g>
</g>
<g>
</g>
<g>
</g>
<g>
</g>
<g>
</g>
<g>
</g>
<g>
</g>
</svg>
